<svg width="12" height="17" viewBox="0 0 12 17" fill="none" xmlns="http://www.w3.org/2000/svg">
<path d="M8.37857 0.587695L8.57143 1.0625H11.1429C11.617 1.0625 12 1.5373 12 2.125C12 2.7127 11.617 3.1875 11.1429 3.1875H0.857142C0.383036 3.1875 0 2.7127 0 2.125C0 1.5373 0.383036 1.0625 0.857142 1.0625H3.42857L3.62143 0.587695C3.76607 0.225781 4.06339 0 4.3875 0H7.6125C7.93661 0 8.23393 0.225781 8.37857 0.587695ZM0.857142 4.25H11.1429L10.575 15.5059C10.5321 16.3459 9.96964 17 9.29196 17H2.70804C2.03036 17 1.46786 16.3459 1.425 15.5059L0.857142 4.25Z" fill="#DC3545"/>
</svg>
