<svg width="24" height="22" viewBox="0 0 24 22" fill="none" xmlns="http://www.w3.org/2000/svg">
<path d="M23.4618 6.05463L12.5243 0.130386C12.3663 0.0448066 12.1896 0 12.0101 0C11.8307 0 11.654 0.0448066 11.496 0.130386L0.563955 6.05463C0.353129 6.17042 0.186589 6.35321 0.0904882 6.5743C-0.00561247 6.79539 -0.0258301 7.04226 0.0330102 7.27614C0.0918506 7.51002 0.226416 7.71765 0.415574 7.86644C0.604732 8.01523 0.837768 8.09675 1.07809 8.09818C1.25127 8.09818 1.42878 8.0569 1.59222 7.96781L2.38669 7.53759L4.10767 19.7598C4.34147 21.0787 5.5256 22 6.98681 22H17.0335C18.4947 22 19.6788 21.0787 19.9148 19.7316L21.6336 7.5365L22.4313 7.9689C22.6829 8.09588 22.9739 8.11946 23.2425 8.03464C23.5111 7.94981 23.7362 7.76325 23.87 7.51457C24.0038 7.26588 24.0358 6.97465 23.9592 6.70268C23.8825 6.43071 23.7033 6.19941 23.4596 6.05789L23.4618 6.05463ZM12.0101 14.8383C11.0772 14.8383 10.1824 14.4663 9.52273 13.8042C8.86302 13.142 8.49241 12.2439 8.49241 11.3075C8.49241 10.371 8.86302 9.47293 9.52273 8.81077C10.1824 8.1486 11.0772 7.7766 12.0101 7.7766C12.9431 7.7766 13.8379 8.1486 14.4976 8.81077C15.1573 9.47293 15.5279 10.371 15.5279 11.3075C15.5279 12.2439 15.1573 13.142 14.4976 13.8042C13.8379 14.4663 12.9431 14.8383 12.0101 14.8383Z" fill="#1d9bf0"/>
</svg>
