<svg width="40" height="40" viewBox="0 0 40 40" fill="none" xmlns="http://www.w3.org/2000/svg">
<mask id="mask0_236_2193" style="mask-type:alpha" maskUnits="userSpaceOnUse" x="0" y="0" width="40" height="40">
<circle cx="20" cy="20" r="20" fill="white"/>
</mask>
<g mask="url(#mask0_236_2193)">
<rect x="-5" y="-3" width="49" height="50" fill="white"/>
<path d="M25.2481 22.5705C23.7991 24.2561 21.5284 24.4848 19.5002 24.4848C17.4719 24.4848 15.2012 24.2577 13.7523 22.5705C12.5338 21.1531 12.1387 18.9615 12.5458 15.8797C13.1146 11.5711 15.7146 9 19.5002 9C23.2857 9 25.8857 11.5711 26.4545 15.8767C26.8617 18.9615 26.4665 21.1531 25.2481 22.5705Z" fill="#1d9bf0"/>
<path d="M19.5002 26.6642C25.4846 26.6642 30.5813 30.4196 31.8941 35.7935H31.8926C32.1515 36.8497 31.9375 37.9272 31.3028 38.7502C30.6921 39.5428 29.7461 40 28.7088 40H10.2915C9.25422 40 8.30822 39.5428 7.6975 38.7502C7.06433 37.9272 6.84879 36.8482 7.10625 35.7935C8.41898 30.4196 13.5158 26.6642 19.5002 26.6642Z" fill="#1d9bf0"/>
</g>
</svg>
