<svg width="28" height="26" viewBox="0 0 28 26" fill="none" xmlns="http://www.w3.org/2000/svg">
<path d="M10.3218 6.01821H6.56843V2.04619C6.56843 1.56473 6.21655 1.08328 5.63008 1.08328C5.04361 1.08328 4.80903 1.56473 4.80903 2.04619V6.01821H0.938347C0.469173 6.01821 0 6.3793 0 6.98112C0 7.58294 0.35188 7.94403 0.938347 7.94403H4.80903V11.916C4.80903 12.3975 5.16091 12.879 5.74737 12.879C6.33384 12.879 6.68572 12.5179 6.68572 11.916V7.82367H10.5564C11.0256 7.82367 11.4947 7.46257 11.4947 6.86075C11.4947 6.25893 10.9083 6.01821 10.3218 6.01821ZM27.9158 0.120364V0H27.7985C27.6812 0 17.0075 1.44437 10.9083 14.0826C6.45114 23.2303 6.68572 25.9986 7.0376 25.9986C7.38948 26.119 11.0256 18.175 14.8963 14.9251C20.9955 13.6011 22.6376 10.592 22.6376 10.592C22.6376 10.592 20.8782 10.8328 20.1745 10.8328C19.2361 10.8328 18.5324 10.592 18.1805 10.4717C19.7053 9.02731 20.9955 8.66622 22.2857 8.42549C23.3414 8.18476 24.397 7.94403 25.8045 6.98112C28.385 5.05529 28.0331 0.361092 27.9158 0.120364Z" fill="#1d9bf0"/>
</svg>
