<svg width="16" height="14" viewBox="0 0 16 14" fill="none" xmlns="http://www.w3.org/2000/svg">
<path d="M8.00075 14H7.9903C6.06249 13.9645 0.5 8.98001 0.5 4.25907C0.5 1.99112 2.38452 0 4.53249 0C6.24162 0 7.39098 1.1695 8 2.02073C8.60752 1.17098 9.75689 0 11.4668 0C13.6162 0 15.5 1.99112 15.5 4.25981C15.5 8.97927 9.93676 13.9637 8.00896 13.9985H8.00075V14ZM4.53324 1.11103C2.98084 1.11103 1.62026 2.58253 1.62026 4.26055C1.62026 8.50925 6.87004 12.8438 8.00149 12.8897C9.13444 12.8438 14.3827 8.50999 14.3827 4.26055C14.3827 2.58253 13.0221 1.11103 11.4697 1.11103C9.58299 1.11103 8.52916 3.28423 8.5202 3.3057C8.34854 3.72169 7.65743 3.72169 7.48502 3.3057C7.47458 3.28349 6.42148 1.11103 4.53398 1.11103H4.53324Z" fill="black"/>
</svg>
