<svg width="28" height="23" viewBox="0 0 28 23" fill="none" xmlns="http://www.w3.org/2000/svg">
<path d="M28 2.72822C26.9703 3.18925 25.8642 3.50076 24.7013 3.64157C25.9012 2.91611 26.7988 1.77434 27.2268 0.429283C26.0995 1.10587 24.8658 1.58211 23.5791 1.8373C22.7139 0.903854 21.5679 0.285149 20.3191 0.0772448C19.0702 -0.130659 17.7884 0.0838706 16.6725 0.687527C15.5567 1.29118 14.6693 2.25019 14.1482 3.41566C13.627 4.58113 13.5012 5.88786 13.7904 7.13296C11.5062 7.01707 9.27163 6.41717 7.23174 5.37219C5.19185 4.32721 3.39221 2.8605 1.94962 1.06725C1.45635 1.92702 1.17273 2.92385 1.17273 3.98547C1.17218 4.94118 1.4051 5.88224 1.85081 6.72517C2.29653 7.5681 2.94127 8.28684 3.72783 8.8176C2.81563 8.78827 1.92356 8.53922 1.12587 8.09116V8.16592C1.12578 9.50634 1.58464 10.8055 2.42461 11.843C3.26457 12.8804 4.43389 13.5923 5.73417 13.8578C4.88796 14.0892 4.00077 14.1233 3.13961 13.9575C3.50647 15.1109 4.22108 16.1194 5.1834 16.842C6.14572 17.5646 7.30757 17.965 8.5063 17.9872C6.47139 19.6013 3.95829 20.4769 1.37127 20.473C0.913004 20.4732 0.455128 20.4461 0 20.392C2.62597 22.0981 5.68279 23.0035 8.80472 23C19.3729 23 25.1502 14.1556 25.1502 6.48502C25.1502 6.23581 25.144 5.98411 25.1329 5.73491C26.2567 4.91374 27.2267 3.89687 27.9975 2.73196L28 2.72822Z" fill="#1D9BF0"/>
</svg>
