<svg width="18" height="22" viewBox="0 0 18 22" fill="none" xmlns="http://www.w3.org/2000/svg">
<path d="M9.00011 10.9892C10.4604 10.9892 12.0954 10.8269 13.1386 9.63068C14.0159 8.62478 14.3004 7.06942 14.0073 4.88024C13.5977 1.82468 11.7257 0 9.00011 0C6.27453 0 4.40251 1.82468 3.99297 4.8824C3.69983 7.06942 3.98435 8.62478 4.86162 9.63068C5.90487 10.828 7.53979 10.9892 9.00011 10.9892ZM5.59448 5.09656C5.76907 3.79862 6.44266 1.62242 9.00011 1.62242C11.5576 1.62242 12.2312 3.7997 12.4057 5.09656C12.6288 6.77306 12.4672 7.93795 11.9208 8.56313C11.4304 9.12557 10.5564 9.36677 9.00011 9.36677C7.44387 9.36677 6.56983 9.12557 6.07946 8.56313C5.53305 7.93795 5.37139 6.77198 5.59448 5.09656ZM17.9237 19.0147C16.9786 15.201 13.3089 12.5359 9.00011 12.5359C4.69134 12.5359 1.02167 15.201 0.0764968 19.0147C-0.108873 19.7632 0.04632 20.529 0.5022 21.1131C0.941915 21.6755 1.62304 22 2.36991 22H15.6303C16.3772 22 17.0583 21.6755 17.498 21.1131C17.955 20.529 18.1091 19.7643 17.9227 19.0147H17.9237ZM16.2252 20.1137C16.0894 20.2867 15.8847 20.3797 15.6303 20.3797H2.36991C2.11664 20.3797 1.9108 20.2878 1.775 20.1137C1.70093 20.0136 1.65075 19.8977 1.62833 19.7751C1.6059 19.6524 1.61184 19.5263 1.64567 19.4063C2.41086 16.3183 5.43606 14.1605 9.00011 14.1605C12.5642 14.1605 15.5894 16.3172 16.3546 19.4063C16.4192 19.668 16.3729 19.9255 16.2252 20.1137Z" fill="black"/>
</svg>
